<svg width="134" height="42" viewBox="0 0 134 42" fill="none" xmlns="http://www.w3.org/2000/svg">
<g clip-path="url(#clip0)">
<path d="M130.55 10.3507C125.857 2.01563 116.32 -1.87591 107.106 0.883805C96.9822 3.92997 91.5071 13.7287 93.761 24.2889C94.2652 26.6504 95.0199 28.9071 96.4745 31.031C99.6134 28.7848 102.618 26.6888 105.545 24.4776C105.953 24.1702 106.011 23.3213 106.145 22.7065C106.385 21.5642 106.2 20.111 106.831 19.311C109.421 16.0343 113.13 14.1479 116.543 11.7969C116.536 12.0941 116.469 12.3867 116.346 12.6561C116.222 12.9255 116.045 13.1659 115.826 13.3619C114.148 14.6963 112.395 15.9399 110.718 17.2674C110.135 17.725 109.054 18.1477 109.812 19.1258C109.994 19.3634 111.184 19.063 111.713 18.6997C113.517 17.456 115.219 16.0622 116.985 14.7627C117.408 14.5171 117.856 14.318 118.32 14.1688L118.629 14.616C118.282 15.0458 117.904 15.4475 117.497 15.8177C115.73 17.215 113.901 18.511 112.176 19.9468C111.778 20.2751 111.702 20.9948 111.49 21.5502C112.066 21.4908 112.776 21.634 113.205 21.3441C115.088 20.0341 116.872 18.5844 118.725 17.229C119.175 16.9679 119.653 16.7582 120.148 16.6037L120.433 17.0823C120.088 17.4678 119.717 17.8296 119.325 18.1652C117.72 19.4263 116.069 20.6105 114.474 21.903C113.857 22.3956 112.581 22.8148 113.339 23.8558C114.166 24.9841 114.944 23.7929 115.617 23.3073C117.27 22.1126 118.862 20.8306 120.512 19.6289C120.956 19.3789 121.425 19.1797 121.912 19.035C121.97 19.6359 121.888 19.9048 121.709 20.0376C118.989 22.1161 116.286 24.2156 113.514 26.1998C112.179 27.1535 110.598 27.1325 109.136 26.4897C108.035 26.0042 107.243 26.2522 106.365 26.9648C102.323 30.2462 98.2618 33.5066 94.1795 36.7461C93.7257 37.0517 93.2537 37.3282 92.7661 37.574C93.6375 38.0735 93.9634 38.3041 94.3236 38.4613C98.9753 40.4874 103.819 41.7904 108.883 41.9825C115.534 42.2375 121.641 40.697 126.745 36.009C133.678 29.6232 135.342 18.8638 130.55 10.3507Z" fill="#F61849"/>
<path d="M49.5248 22.5563C49.8592 21.7031 50.1399 20.8292 50.3653 19.9398L48.0188 19.7931C48.1766 18.5145 48.7427 18.008 49.7787 18.3958C50.7392 18.7451 51.1509 18.3958 51.4939 17.5818C51.6109 17.309 51.757 17.0501 51.9296 16.8098C52.2486 16.3452 52.0943 16.0727 51.6311 15.8421C48.8559 14.4693 44.5815 15.1016 43.9091 19.297C43.8782 19.5031 43.6484 19.828 43.5009 19.835C42.386 19.8804 41.2676 19.8594 40.0704 19.8594C40.1664 18.8778 40.2488 18.0674 40.3414 17.1486C39.6496 17.2589 38.952 17.3266 38.2522 17.3513C37.0481 17.3163 36.4443 17.8683 36.338 19.07C36.2831 19.6638 35.9675 19.9363 35.3397 19.9118C35.103 19.9118 34.6879 20.1424 34.6536 20.3345C34.4855 21.1031 34.4341 21.8995 34.3346 22.7205L35.501 22.951C35.4598 23.3004 35.4186 23.6252 35.3878 23.9396C35.2162 25.4103 34.983 26.8985 34.9487 28.3587C34.9043 29.0071 35.0917 29.65 35.4763 30.1687C35.8609 30.6875 36.4167 31.0471 37.0413 31.1812C38.4272 31.51 39.8824 31.3384 41.1578 30.6957C41.2642 30.6248 41.3514 30.5278 41.4113 30.4137C41.4713 30.2995 41.5021 30.1719 41.5009 30.0424C41.2676 29.2599 40.9486 28.5089 40.6673 27.7683C39.0721 28.1176 38.8903 27.9185 39.1339 26.3325C39.3088 25.1972 39.4769 24.0584 39.6381 22.7764C41.5764 23.3877 41.9674 22.0777 42.3036 20.6804C42.2316 21.3511 42.163 22.0183 42.0875 22.7449L43.4082 22.937C43.1269 25.075 42.8491 27.129 42.5884 29.1831C42.4065 30.6398 41.8131 31.7751 40.3928 32.3515C40.2945 32.4141 40.2133 32.5011 40.1569 32.6044C40.1005 32.7076 40.0707 32.8237 40.0704 32.9419C40.3071 33.8152 40.6158 34.6711 40.8937 35.5164C42.3039 35.2847 43.6073 34.6087 44.6207 33.5836C45.6342 32.5585 46.3067 31.2358 46.5437 29.8014C46.8868 27.7823 47.1646 25.7527 47.3842 23.7195C47.4665 22.9545 47.7684 22.7903 48.4339 22.8183C48.8078 22.8357 49.4253 22.7729 49.5248 22.5563Z" fill="#F61849"/>
<path d="M19.4428 19.5625C18.5269 19.8 17.6967 20.3799 16.8905 20.7747C17.1066 19.0769 17.3468 17.187 17.5972 15.2098C16.3897 15.3251 15.3537 15.4509 14.3108 15.5103C13.7002 15.5452 13.4703 15.8002 13.3914 16.422C12.9695 19.6848 12.4961 22.944 12.0501 26.2033C11.8408 27.7229 11.6522 29.2424 11.436 30.9018C12.7293 30.9018 13.9163 30.9262 15.0998 30.8738C15.2645 30.8738 15.5149 30.5 15.5526 30.273C15.7722 28.9944 15.8408 27.6774 16.1152 26.4094C16.3647 25.4448 16.7095 24.5085 17.1444 23.6147C17.2713 23.3318 17.6452 23.1676 17.9025 22.9475L18.1975 23.1222C17.8545 25.6618 17.5355 28.2014 17.1684 30.9018C18.4034 30.9018 19.4771 30.8808 20.5474 30.9018C21.0654 30.9018 21.2644 30.7131 21.3193 30.2031C21.4428 29.0818 21.6418 27.9744 21.779 26.8565C21.9848 25.2112 22.2695 23.5623 22.321 21.9135C22.4136 20.1948 21.0894 19.1363 19.4428 19.5625Z" fill="#F61849"/>
<path d="M9.68641 26.8251C9.16497 27.129 8.7293 27.4189 8.26275 27.6495C6.5475 28.4949 5.08954 27.7194 5.11013 25.7946C5.11194 24.3182 5.34351 22.8514 5.79622 21.4489C6.52349 19.3005 7.9986 18.8918 9.95055 19.9992C10.0537 20.06 10.1691 20.0961 10.288 20.1045C10.407 20.113 10.5262 20.0937 10.6367 20.0481C11.3228 19.4577 11.9437 18.8079 12.7155 18.0569C12.2026 17.6118 11.6592 17.2043 11.0895 16.8377C8.96257 15.6745 5.67616 16.0378 3.82369 17.6237C1.36403 19.7337 0.633331 22.6017 0.677927 25.7002C0.712232 28.0163 1.55956 30.0145 3.8477 30.8773C6.35539 31.8275 8.73273 31.3804 10.8322 29.6616C10.918 29.5701 10.9804 29.4586 11.0139 29.3367C11.0474 29.2149 11.0509 29.0866 11.0243 28.963C10.6264 28.2364 10.1598 27.5622 9.68641 26.8251Z" fill="#F61849"/>
<path d="M83.4524 15.5696C82.3066 15.4089 81.154 15.3321 79.9258 15.2203C79.8023 16.0971 79.6926 16.8831 79.5828 17.6656C79.473 18.4481 79.3427 19.269 79.2192 20.1109C76.6223 18.9372 74.6017 19.4786 73.1506 21.8017C72.4996 22.8103 72.0594 23.9446 71.8576 25.134C71.6557 26.3234 71.6965 27.5423 71.9774 28.7149C72.5674 31.2965 75.3427 32.2082 77.4079 30.5664C77.6411 30.3778 77.8675 30.1751 78.1386 29.9411C78.2003 30.3149 78.2449 30.5734 78.3032 30.9297C79.2466 30.9297 80.1728 30.8983 81.0956 30.9297C81.6994 30.9576 81.8915 30.7131 81.967 30.1262C82.2654 27.7473 82.6153 25.3719 82.9447 22.9964C83.2397 20.9004 83.5484 18.7695 83.8126 16.6526C83.8572 16.2753 84.1488 15.6674 83.4524 15.5696ZM78.7698 23.5029C78.6017 24.3693 78.6325 25.295 78.3615 26.1229C78.1097 26.8263 77.7051 27.4628 77.178 27.9848C77.0892 28.0991 76.9658 28.1802 76.827 28.2156C76.6882 28.2509 76.5418 28.2385 76.4106 28.1803C76.2794 28.1221 76.1709 28.0213 76.1018 27.8937C76.0327 27.7661 76.0071 27.6188 76.0288 27.4748C76.1178 26.1327 76.3233 24.8012 76.6429 23.4959C76.7526 23.0593 77.3667 22.7589 77.6514 22.4864C78.4164 22.6296 78.9241 22.7065 78.7698 23.5029Z" fill="#F61849"/>
<path d="M31.4632 19.7476L31.2951 19.6987C28.6571 19.1712 26.1803 19.3704 24.3861 21.7039C22.7566 23.8208 22.3827 26.2836 23.0414 28.8652C23.4462 30.4721 24.6503 31.286 26.2763 31.3105C26.8474 31.3384 27.4167 31.226 27.9361 30.9828C28.4555 30.7396 28.9099 30.3727 29.2609 29.9131C30.1802 30.3917 30.9521 30.8284 31.7857 31.1777C31.9269 31.1956 32.0703 31.176 32.2019 31.121C32.3335 31.0659 32.4489 30.9771 32.537 30.8633C32.8389 29.9201 33.8852 29.1167 33.1099 27.9429C33.0138 27.7997 33.0824 27.5342 33.1099 27.3281C33.302 25.9308 33.4872 24.5684 33.7068 23.192C34.1356 20.5057 34.0704 20.3939 31.4632 19.7476ZM29.0962 26.9683C28.9559 27.3874 28.6817 27.7465 28.3175 27.9883C27.6622 28.4844 26.9453 28.1735 26.9933 27.3526C27.068 26.0387 27.2843 24.7372 27.6382 23.4715C27.9127 22.5353 28.6056 22.3536 29.7514 22.6541C29.5387 24.1212 29.3741 25.557 29.0962 26.9683Z" fill="#F61849"/>
<path d="M57.6996 19.9922C54.9381 18.5948 51.1817 19.7372 49.8678 22.5667C49.3332 23.7774 49.0361 25.0827 48.993 26.4094C48.8558 29.5883 50.6259 31.3 53.758 31.3C56.1147 31.3419 57.9603 30.4162 59.0993 28.2643C59.8577 26.8113 60.1697 25.1597 59.9946 23.5239C59.8471 21.9729 59.1336 20.7223 57.6996 19.9922ZM55.3635 27.1884C55.3002 27.5155 55.1135 27.8044 54.8436 27.9932C54.5736 28.1819 54.2418 28.2554 53.9192 28.1979C53.1268 28.0896 53.0753 27.391 53.1096 26.8356C53.193 25.7771 53.3524 24.7263 53.5865 23.6916C53.695 23.3255 53.9209 23.007 54.228 22.7868C54.9346 22.2558 55.6996 22.6261 55.806 23.5169C55.8277 23.8659 55.8277 24.2159 55.806 24.5649L55.9192 24.5859C55.7442 25.4697 55.6104 26.3465 55.3635 27.1884Z" fill="#F61849"/>
<path d="M68.6292 19.7931C65.727 18.8359 61.9398 19.7931 60.7974 23.716C60.5667 24.5125 60.424 25.3327 60.372 26.1614C60.1799 29.4101 61.9878 31.321 65.3531 31.321C66.3234 31.3844 67.2923 31.1776 68.1559 30.7228C69.0196 30.268 69.7453 29.5824 70.2553 28.7394C71.3511 26.9887 71.7211 24.8672 71.2844 22.8392C71.1666 22.1291 70.8552 21.467 70.3858 20.9284C69.9163 20.3898 69.3077 19.9964 68.6292 19.7931ZM66.7699 27.1989C66.7395 27.3613 66.6779 27.5159 66.5885 27.654C66.4992 27.792 66.384 27.9107 66.2494 28.0033C66.1149 28.0958 65.9637 28.1603 65.8046 28.1931C65.6455 28.226 65.4815 28.2264 65.3222 28.1945C64.5195 28.0757 64.5401 27.391 64.5607 26.8181C64.6 25.9627 64.6859 25.1102 64.818 24.2645C64.8815 23.9432 64.9975 23.635 65.161 23.3527C65.4595 22.7729 65.9397 22.4235 66.5847 22.6191C67.3908 22.8602 67.2708 23.6078 67.4148 24.268C67.1953 25.2461 67.0375 26.2382 66.7699 27.1989Z" fill="#F61849"/>
</g>
<defs>
<clipPath id="clip0">
<rect width="132.606" height="42" fill="white" transform="translate(0.677979)"/>
</clipPath>
</defs>
</svg>
